<?xml version="1.0" encoding="UTF-8"?>
<svg width="200px" height="200px" viewBox="0 0 200 200" version="1.1" xmlns="http://www.w3.org/2000/svg" xmlns:xlink="http://www.w3.org/1999/xlink">
    <title>Logo_ Zujugp</title>
    <g id="Logo_-Zujugp" stroke="none" stroke-width="1" fill="none" fill-rule="evenodd">
        <g id="Group-26" transform="translate(20.000000, 81.999992)" fill="#FFFFFF">
            <path d="M8.41595111,22.4566804 C8.67710597,22.0791024 8.92076579,21.9755886 9.38428634,22.1343518 C11.9364104,23.0085439 14.4997744,23.8504789 17.0639691,24.689552 C17.4905937,24.8292035 17.6786897,25.0555854 17.7023422,25.5188752 C17.7698788,26.8410774 17.8893142,28.1607088 17.9878826,29.4814558 C18.0719369,30.6413053 18.1700654,31.8004272 18.2357451,32.9612953 C18.273032,33.6208442 18.2548528,33.6413141 17.6006951,33.8337412 C15.1993312,34.5401963 12.7897085,35.2194875 10.393427,35.9422895 C9.9351843,36.0805342 9.67637515,35.9691623 9.39728544,35.6219496 C7.7124359,33.5254796 6.01918092,31.4354609 4.30872413,29.3596063 C4.00480907,28.9907596 4.01805252,28.7188296 4.28634222,28.3424158 C5.67749029,26.3906419 7.05270713,24.427663 8.41595111,22.4566804 Z M90.2720236,9.94997289 L91.4102069,9.95869695 C92.1382542,9.96718567 92.1717782,9.9911481 92.1754434,10.7386401 C92.1879049,13.2881165 92.1815031,15.8376413 92.1822361,18.3871662 L92.1822361,18.3871662 L92.1821384,19.6457759 C92.1819429,22.1630436 92.1859013,24.6802629 92.1796949,27.1975307 C92.1776913,28.0038616 92.1449492,28.8060209 91.9742505,29.603281 C91.521139,31.7188142 90.242829,33.0197704 88.1269078,33.5011533 C86.6516565,33.8367729 85.1637482,33.8376945 83.6671413,33.6293572 C83.2607973,33.5728466 83.1049547,33.3973485 83.1091687,33.0069161 C83.1193221,32.1034258 83.1181981,31.1996929 83.1108189,30.2962026 C83.1074958,29.8969905 83.2643158,29.7020896 83.6900119,29.722026 C84.111603,29.7418168 84.5371525,29.7472496 84.9574242,29.7141193 C85.9195531,29.6384485 86.460775,29.180931 86.6229217,28.244165 C86.7158213,27.7075812 86.7248131,27.1521282 86.7255462,26.6051154 C86.732681,21.4738085 86.730091,16.3425016 86.7298466,11.2112432 C86.7297489,9.75137828 86.7273054,9.96805879 87.9955485,9.95656265 C89.1337028,9.94627918 90.2721014,9.94545456 91.4102069,9.95869695 Z M20.7488279,31.1641907 C21.3777693,31.1641907 21.8876664,31.6703122 21.8876664,32.2945965 C21.8876664,32.9186868 21.3777693,33.4247597 20.7488279,33.4247597 C20.1201308,33.4247597 19.6101849,32.9186868 19.6101849,32.2945965 C19.6101849,31.6703122 20.1201308,31.1641907 20.7488279,31.1641907 Z M20.7488279,31.3394463 C20.2181616,31.3394463 19.7867479,31.7678596 19.7867479,32.2945965 C19.7867479,32.8213819 20.2181616,33.2495527 20.7488279,33.2495527 C21.2794942,33.2495527 21.7111034,32.8213819 21.7111034,32.2945965 C21.7111034,31.7678596 21.2794942,31.3394463 20.7488279,31.3394463 Z M20.787014,31.6056815 C20.9245308,31.6056815 21.024663,31.6170321 21.0870195,31.6400244 C21.149425,31.6629197 21.1995155,31.703811 21.2370956,31.7627955 C21.2746269,31.8215374 21.2935391,31.888962 21.2935391,31.9645359 C21.2935391,32.0603856 21.2648531,32.1398399 21.2080187,32.2023654 C21.1513309,32.2651334 21.0660548,32.3042785 20.9529236,32.3207223 C21.0094159,32.3531735 21.0558901,32.3891656 21.0923951,32.4281652 C21.1290956,32.4669223 21.1783065,32.5363842 21.2409074,32.6358234 L21.2409074,32.6358234 L21.3981672,32.8856342 L21.0866775,32.8856342 L20.8984349,32.6071558 C20.8315823,32.5073285 20.7857434,32.4448031 20.761309,32.4188519 C20.7365325,32.3929492 20.7103877,32.3752926 20.6828257,32.3657853 C20.6554592,32.3559384 20.6117705,32.3512817 20.5517107,32.3512817 L20.5517107,32.3512817 L20.499079,32.3512817 L20.499079,32.8856342 L20.2387061,32.8856342 L20.2387061,31.6056815 Z M20.7736637,31.8224871 L20.499079,31.8222165 L20.499079,32.1469705 L20.6919642,32.1469705 C20.8165307,32.1469705 20.8946231,32.1417317 20.9256059,32.1311572 C20.9565887,32.1206312 20.9811697,32.1027321 20.9988114,32.077072 C21.0164041,32.0513148 21.0251028,32.0195427 21.0251028,31.9812222 C21.0251028,31.9380026 21.0134231,31.9033201 20.9903082,31.8767383 C20.9673887,31.8504475 20.9346955,31.8333246 20.8922774,31.8264366 C20.8712638,31.8236717 20.8080276,31.8222165 20.7023732,31.8222165 Z M117.537177,9.41642329 C119.264542,4.33498154 123.572131,1.93922366 128.770207,2.30030934 C129.451976,2.34770062 130.131985,2.42802812 130.793522,2.60876499 C134.028979,3.492707 136.053515,5.56662131 136.910821,8.77220259 C137.102142,9.48753447 137.08494,9.50533652 136.336075,9.63771196 C135.727951,9.74520335 135.111765,9.80729223 134.50242,9.90876876 C134.06563,9.98152917 133.811415,9.83513522 133.752772,9.38838628 C133.744416,9.32489069 133.722522,9.2627533 133.70361,9.20105247 C132.770705,6.15239115 130.334351,4.77377534 127.178746,4.98220967 C124.274767,5.17410314 122.273638,6.70410911 121.060421,9.28758886 C120.189042,11.1430764 119.935364,13.124682 119.960825,15.1442201 C119.984282,16.999271 120.262736,18.815759 121.074789,20.5125804 C122.097955,22.6506694 123.701536,24.1093216 126.090487,24.5782867 C127.481439,24.8512838 128.877816,24.8139335 130.242233,24.3950275 C131.851776,23.9008873 133.015195,22.878361 133.762399,21.3846382 C134.337585,20.2348296 134.58364,19.0067309 134.619705,17.7336662 C134.636613,17.1358181 134.577482,17.0681509 133.955773,17.0555876 C132.97957,17.0358938 132.002683,17.0487481 131.026138,17.047972 C130.114686,17.0471959 129.202892,17.0599532 128.291782,17.0415206 C127.574779,17.0269685 127.516869,16.9784616 127.522049,16.2508089 L127.522049,16.2508089 L127.522104,15.8984013 C127.510883,14.0896113 127.355417,14.3686426 129.327067,14.3526353 C131.573028,14.3344452 133.819332,14.3483181 136.065439,14.3488517 C136.325812,14.3489002 136.586527,14.361609 136.846607,14.3532173 C137.282859,14.3391988 137.525101,14.5136298 137.507362,14.9734271 C137.501156,15.1345672 137.51308,15.2963378 137.513129,15.4578174 C137.513617,18.9142766 137.515816,22.3707358 137.512249,25.827195 C137.511125,26.909967 137.503843,26.9101125 136.443879,26.9195713 C136.313644,26.920784 136.18336,26.9221422 136.053222,26.9188437 C135.203736,26.8971611 135.200804,26.8971126 135.095931,26.0686625 C135.026977,25.5240751 134.976105,24.9770623 134.901922,24.4332995 C134.896663,24.3948032 134.892768,24.3558574 134.889501,24.3166767 L134.871564,24.0804888 C134.853095,23.8841759 134.813561,23.6927137 134.660999,23.5329136 C134.45922,23.5626484 134.4039,23.7288817 134.323315,23.8615967 C133.197183,25.7160171 131.521912,26.8141172 129.418061,27.2379224 C125.19956,28.0878125 121.167249,26.6206716 118.809671,22.9764905 C118.297184,22.1843236 117.868409,21.3484035 117.572606,20.4563608 C116.354503,16.7826875 116.290534,13.0836937 117.537177,9.41642329 Z M110.33805,9.94926963 L111.998563,9.95762495 C112.793463,9.96538606 112.810762,9.97634863 112.813304,10.779284 C112.822002,13.493296 112.817311,16.2073564 112.817457,18.9214168 C112.817506,21.2800669 112.821856,23.638717 112.814574,25.9973185 C112.811886,26.8958611 112.798496,26.9076483 111.875414,26.9166706 C110.73594,26.9277302 109.596124,26.929719 108.456748,26.9150214 C107.625392,26.9043499 107.613468,26.8752457 107.593187,26.0153146 C107.581019,25.5001224 107.564355,24.9851242 107.54598,24.4701745 C107.545247,24.4498986 107.505761,24.4309324 107.407388,24.3410975 C107.231558,24.5986209 107.090376,24.8139432 106.940642,25.0232506 C106.258483,25.9771396 105.353677,26.6377557 104.234875,26.9971921 C102.758939,27.4713475 101.275918,27.4250234 99.821778,26.9303011 C98.4044851,26.448045 97.5007056,25.4346865 96.9955,24.047679 C96.624146,23.0281601 96.5278744,21.9670222 96.5229876,20.899627 C96.5078871,17.5717112 96.5165857,14.2437469 96.5169278,10.9157826 C96.5169278,10.7544 96.5246491,10.5929204 96.5310509,10.4315863 C96.5430726,10.1294365 96.6745786,9.9565578 97.0069841,9.95767346 C98.4720707,9.96242714 99.937255,9.96330026 101.402342,9.95704287 C101.760941,9.95553915 101.951431,10.1026122 101.95666,10.4652986 C101.960814,10.7560007 101.969513,11.0467028 101.969659,11.3374049 C101.970783,14.0514654 101.964382,16.7655258 101.975768,19.4795377 C101.978065,20.0268901 102.002792,20.5812274 102.093884,21.1196059 C102.26209,22.1138527 102.7585,22.8765759 103.821005,23.1153756 C104.953784,23.3699885 106.036081,22.9611235 106.663214,22.0587489 C107.183423,21.3102867 107.33042,20.4542847 107.332521,19.5693726 C107.339119,16.8230065 107.332033,14.0766405 107.337359,11.3302259 L107.337359,11.3302259 L107.337028,11.031604 C107.333902,9.88670773 107.337099,9.95008955 108.401235,9.95647611 L108.677537,9.95626676 C109.784464,9.94661387 110.891636,9.9468079 111.998563,9.95762495 Z M81.3181746,9.95082913 C81.7764662,9.94350458 81.9839631,10.1171594 81.9514653,10.5737068 C81.9400789,10.7343618 81.9531269,10.8966175 81.9531757,11.0581456 C81.9533712,15.9686489 81.9544463,20.8791037 81.9524916,25.7895585 C81.9521006,26.9099233 81.9474092,26.914483 80.8325165,26.9186545 C79.6930916,26.9229232 78.5533735,26.9316059 77.4143884,26.9096323 C76.7991791,26.8977966 76.7460098,26.8329428 76.7272931,26.2341731 C76.708332,25.6292915 76.7230904,25.0232943 76.7230904,24.4177821 L76.7230904,24.4177821 L76.5312315,24.3932376 C76.4869075,24.4401438 76.4307572,24.4805016 76.3998721,24.5349264 C75.0181558,26.9706055 72.1714017,27.8016749 69.3340793,27.0463733 C67.8087375,26.6403217 66.7796095,25.6782835 66.2019803,24.2341833 C65.9610571,23.6318726 65.800181,23.0048719 65.7491131,22.3560431 C65.708552,21.8408508 65.655676,21.3246399 65.6541122,20.8086716 C65.6438497,17.4812409 65.6412597,14.1537616 65.6479058,10.8262824 C65.6496162,9.97052295 65.6689683,9.96198572 66.5176238,9.95664996 C67.7546886,9.94879184 68.9918511,9.94753066 70.228867,9.95747458 C71.0641813,9.96416854 71.0842175,9.98177656 71.0934049,10.8444725 C71.1064528,12.0719892 71.0976564,13.2996999 71.0979497,14.5273136 C71.0983406,16.1748519 71.0889089,17.8225357 71.1041071,19.4700255 C71.1091895,20.0175719 71.1342592,20.5717637 71.2256927,21.1103363 C71.3941434,22.1028368 71.885226,22.8694405 72.9463631,23.1133334 C74.07533,23.3727486 75.165202,22.9662604 75.7917,22.0668447 C76.3327753,21.290103 76.4716604,20.4015528 76.4728821,19.4833649 C76.4764007,16.8019497 76.4678975,14.1205829 76.4774758,11.4392161 C76.478264,11.2172108 76.4760979,11.0281309 76.4753476,10.8671351 L76.4758303,10.6460995 C76.4837414,10.0425511 76.5645697,9.95869088 77.1165405,9.9533676 L77.3185267,9.95389681 C77.5023004,9.95575321 77.7258419,9.95988741 77.9976864,9.95684399 C79.104418,9.94442621 80.2115895,9.96853416 81.3181746,9.95082913 Z M61.3173338,9.95486976 C61.5451113,9.95491826 61.7728887,9.96103014 62.0005684,9.96641441 C62.2825903,9.97315687 62.4072546,10.1323082 62.4081831,10.3977866 C62.4110175,11.2051362 62.4170772,12.0125342 62.408574,12.8197383 C62.4044691,13.2098311 62.1023622,13.450086 61.8854824,13.7248778 L61.8854824,13.7248778 L55.3759142,21.9580581 C55.1612824,22.229891 54.9019357,22.4783921 54.7577728,22.8810482 C55.2077567,23.0686246 55.5702165,23.0040133 55.9234402,23.005323 C57.8438862,23.0122595 59.7643323,23.0080394 61.6847783,23.0093491 C61.9450046,23.0095431 62.2053776,23.015558 62.4654573,23.0248713 C62.7831534,23.0362219 62.9388494,23.2153581 62.94012,23.5196906 C62.9442249,24.4885198 62.9434919,25.457349 62.9393869,26.4262266 C62.9380675,26.7408426 62.7593543,26.8943186 62.4498193,26.9046506 C62.2221884,26.9123147 61.9944599,26.9193482 61.7667313,26.9193967 L61.7667313,26.9193967 L49.169919,26.9195422 C48.9421415,26.9194937 48.714364,26.911199 48.4866354,26.9089192 C48.1369303,26.9054267 47.9408687,26.7548612 47.9429212,26.3848502 C47.9471728,25.6097093 47.9523529,24.8343743 47.9384741,24.0594759 C47.9305574,23.620197 48.2263602,23.354282 48.4683096,23.0580501 C50.6816264,20.3479187 52.8991458,17.6412798 55.1142218,14.9326522 C55.358468,14.6339464 55.5954328,14.3293228 55.8249207,14.0410946 C55.6364338,13.6818522 55.3417549,13.8058844 55.1085041,13.8044777 C53.188107,13.7931271 51.2676121,13.8011792 49.3471661,13.7962315 C48.3491675,13.7936607 48.3456001,13.7872577 48.3396381,12.7641978 C48.3353376,12.021314 48.3491675,11.2782847 48.3410064,10.5354979 C48.3366082,10.1369648 48.493135,9.92814243 48.9158989,9.95583989 C49.077899,9.96641441 49.2412674,9.95457871 49.4040494,9.95457871 L49.4040494,9.95457871 Z M149.130852,2.81398546 L151.602726,2.82104592 C152.842772,2.82764286 154.067864,2.9676339 155.252786,3.36233489 C158.284655,4.37210391 159.998581,6.74918661 159.999999,9.95142091 C160.001367,13.1538007 158.292278,15.5313685 155.257819,16.5423987 C154.137942,16.9155626 152.981559,17.0751019 151.804163,17.0820869 C150.373138,17.0906242 148.941967,17.0817959 147.510844,17.0858705 C146.427618,17.0889264 146.420972,17.09271 146.419164,18.1315831 C146.414912,20.6168363 146.417747,23.102138 146.41716,25.5873912 C146.41716,25.8455452 146.406702,26.1039416 146.412518,26.3619016 C146.420581,26.7214835 146.246999,26.9049853 145.888595,26.906101 C145.140805,26.9083323 144.393015,26.9089629 143.645322,26.8999406 C143.331829,26.896157 143.176377,26.717506 143.172761,26.4080317 C143.169682,26.1498777 143.1646,25.8917238 143.164551,25.6335213 L143.164551,25.6335213 L143.164453,4.13752433 C143.164502,3.87932188 143.171246,3.62111943 143.170366,3.36296548 C143.169193,3.00983494 143.335152,2.82274366 143.699224,2.82264665 C143.861811,2.82259814 144.024397,2.81638925 144.186984,2.81638925 C146.658914,2.81634075 149.130894,2.80790054 151.602726,2.82104592 Z M29.9694074,5.93715129 C30.3305966,5.76548523 30.5799253,5.89082716 30.812443,6.17527187 C31.201683,6.65141602 31.6095908,7.112426 32.0083602,7.58085754 C33.2886739,9.0849123 34.5540336,10.6018214 35.8573156,12.0859883 C36.2323836,12.5131404 36.2773429,12.8735955 36.0516179,13.3900004 C35.1717352,15.402602 34.3402815,17.436013 33.4818033,19.4579279 C33.1766666,20.1766067 33.1611263,20.1848044 32.3928599,19.9614784 C30.2722962,19.3450037 28.1588184,18.7041785 26.0341497,18.1021103 C25.5402327,17.9621678 25.2625602,17.7343792 25.1676082,17.2128326 C24.7108804,14.7049751 24.2264928,12.2020654 23.7531008,9.69711842 C23.7291551,9.57036978 23.7158139,9.44163235 23.6929922,9.28189899 C23.6519913,9.05934914 23.7385868,8.88448161 23.9834194,8.76918061 C25.9805406,7.82892204 27.9758048,6.88473441 29.9694074,5.93715129 Z M152.797129,5.66917954 C150.860458,5.35456351 148.903312,5.56241576 146.955548,5.52501691 C146.513578,5.51652819 146.41892,5.78743947 146.420239,6.15638327 C146.424735,7.41455634 146.421901,8.67277791 146.421901,9.93099949 L146.421901,9.93099949 C146.419164,11.1569639 146.40812,12.3830739 146.423367,13.6088444 C146.432505,14.3404261 146.464856,14.3735078 147.205854,14.3797167 C148.701288,14.3923285 150.197211,14.4001866 151.692254,14.3729742 C152.541203,14.357452 153.371581,14.1896665 154.149719,13.8292599 C155.302094,13.295635 156.091032,12.4457934 156.438294,11.216579 C157.193854,8.5420517 155.626045,6.12868581 152.797129,5.66917954 Z M10.1219218,0.110541045 C10.890237,-0.0850874536 10.9041157,-0.0765502317 11.263839,0.599636543 C12.0683171,2.11193748 12.8658559,3.62787644 13.6571883,5.14701686 C13.9760084,5.75917447 13.9767414,5.77794666 13.4908878,6.1981623 C11.5541196,7.87330104 9.60953241,9.53956302 7.66768185,11.2089294 C7.44381389,11.4013565 7.21877308,11.5925223 6.88519466,11.5141836 C6.75945524,11.481878 6.63205429,11.4548111 6.50817189,11.4165877 C4.55351771,10.8130643 2.59764181,10.2132274 0.645773153,9.6009243 C-0.0820298535,9.37260212 -0.0935628898,9.35407247 0.121753034,8.66993056 C0.742044685,6.69928752 1.38765037,4.73640559 1.99675107,2.76246409 C2.1379819,2.3048981 2.38618652,2.08647134 2.85415413,1.97029721 C5.28117411,1.3678895 7.6986158,0.727694871 10.1219218,0.110541045 Z M91.665473,2.57222956 C92.0972289,2.56252817 92.3323855,2.69068351 92.325886,3.17032016 C92.309124,4.39415031 92.3126914,5.61841703 92.3246154,6.84234419 C92.3289158,7.28477601 92.1484434,7.4935984 91.6955273,7.49175514 C90.2348878,7.4858858 88.7741995,7.48840816 87.31356,7.49190542 C86.8893299,7.4928708 86.6478203,7.34594327 86.6538801,6.87217596 C86.6700556,5.6161372 86.663214,4.35975889 86.6597932,3.1035746 C86.6588647,2.74505979 86.8197896,2.57518848 87.1861101,2.57819591 C87.9650788,2.58459883 88.7441452,2.58013619 89.5231627,2.58013619 L89.5231627,2.58013619 C90.2372824,2.57659518 90.9517442,2.58828536 91.665473,2.57222956 Z" id="Combined-Shape"></path>
        </g>
    </g>
</svg>