<?xml version="1.0" encoding="UTF-8"?>
<svg width="200px" height="200px" viewBox="0 0 200 200" version="1.1" xmlns="http://www.w3.org/2000/svg" xmlns:xlink="http://www.w3.org/1999/xlink">
    <title>Logo_ therabody</title>
    <g id="Logo_-therabody" stroke="none" stroke-width="1" fill="none" fill-rule="evenodd">
        <path d="M158.894865,115.78635 L163.174089,126.208427 L167.453078,115.78635 L170,115.78635 L160.058675,140 L157.511753,140 L161.263898,130.861009 L155.074717,115.78635 L158.894865,115.78635 Z M142.908694,117.99378 L142.908694,125.994065 C142.908694,127.960658 144.488927,129.554896 146.438242,129.554896 L146.438242,129.554896 L149.07185,129.554896 C147.776904,131.510995 145.365557,132.381592 143.134439,131.698549 C140.903321,131.015507 139.378193,128.939783 139.379145,126.587537 L139.379145,126.587537 L139.379145,123.026706 C139.379842,120.764062 140.794027,118.747519 142.908694,117.99378 L142.908694,117.99378 Z M110.581633,107.240356 L110.581633,125.994065 C110.581633,127.960658 112.161865,129.554896 114.111181,129.554896 L114.111181,129.554896 L116.744765,129.554896 C115.449811,131.510972 113.038478,132.381552 110.807374,131.698513 C108.576271,131.015473 107.051147,128.939769 107.052084,126.587537 L107.052084,126.587537 L107.052084,107.240356 L110.581633,107.240356 Z M97.6399558,115.311571 C100.888815,115.311571 103.522536,117.968636 103.522536,121.246291 L103.522536,121.246291 L103.522536,131.454006 L99.992988,131.454006 L99.992988,124.332344 L94.5229883,124.332344 C93.9416707,125.434923 93.9766861,126.764423 94.6152204,127.834302 C95.2537546,128.904181 96.4020796,129.557395 97.6399558,129.554896 L97.6399558,129.554896 L99.3583046,129.554896 C98.2161287,131.550735 95.8182069,132.430835 93.6718522,131.641973 C91.5254976,130.853112 90.2506433,128.623136 90.6486518,126.353789 C91.0466603,124.084443 93.0025746,122.431183 95.2869237,122.433234 L95.2869237,122.433234 L99.992988,122.433234 L99.992988,121.246291 C99.992988,119.279698 98.4127554,117.68546 96.4634398,117.68546 L96.4634398,117.68546 L92.9338916,117.68546 C94.0438653,116.189882 95.7880206,115.310075 97.6399558,115.311571 Z M126.745151,117.99378 L126.745151,125.994065 C126.745151,126.938456 127.117014,127.844168 127.778932,128.511953 C128.440851,129.179738 129.338605,129.554896 130.2747,129.554896 L130.2747,129.554896 L132.908307,129.554896 C131.613361,131.510995 129.202014,132.381592 126.970897,131.698549 C124.739779,131.015507 123.21465,128.939783 123.215602,126.587537 L123.215602,126.587537 L123.215602,123.026706 C123.2163,120.764062 124.630484,118.747519 126.745151,117.99378 L126.745151,117.99378 Z M73.3088977,115.311573 C74.5570235,115.311573 75.7540294,115.811783 76.6365876,116.702164 C77.5191459,117.592544 78.0149619,118.800159 78.0149619,120.059347 L78.0149619,120.059347 L78.0149619,123.501484 L68.6650946,123.501484 L68.6670476,124.21365 C68.6670476,127.163539 71.0373965,129.554896 73.9613699,129.554896 L73.9613699,129.554896 L76.5824595,129.554896 C74.8450635,131.679776 71.9726076,132.475839 69.4030574,131.544572 C66.8335072,130.613304 65.1199223,128.155118 65.1199223,125.400593 L65.1199223,125.400593 L65.1199223,122.433234 C65.1215474,120.270432 66.5733067,118.382675 68.6494705,117.84368 L68.6494705,117.84368 L68.6599179,121.602374 L74.4854137,121.602374 L74.4854137,120.652819 C74.4854137,119.013992 73.1685533,117.68546 71.5441236,117.68546 L71.5441236,117.68546 L69.2377285,117.68546 C70.0767073,116.216968 71.6288288,115.31193 73.3088977,115.311573 Z M57.1784388,115.311573 C59.9399693,115.311573 62.1786321,117.570077 62.1786321,120.356083 L62.1786321,120.356083 L62.1786321,131.454006 L58.6490839,131.454006 L58.6490839,121.246291 C58.6490839,119.279698 57.0688514,117.68546 55.1195357,117.68546 L55.1195357,117.68546 L52.9420633,117.68546 C53.8532444,116.209358 55.4547768,115.311927 57.1784388,115.311573 Z M52.3538053,107.240356 L52.3538053,131.454006 L48.8242571,131.454006 L48.8242571,107.240356 L52.3538053,107.240356 Z M47.647741,107.715134 L46.6731151,110.089021 L40.5886446,110.089021 L40.5886446,131.454006 L37.0590964,131.454006 L37.0590964,110.089021 L30,110.089021 L30.9746259,107.715134 L47.647741,107.715134 Z M153.189656,107.240356 L153.189656,131.454006 L149.660108,131.454006 L149.660108,121.246291 C149.660108,119.279698 148.079875,117.68546 146.13056,117.68546 L146.13056,117.68546 L143.496952,117.68546 C144.840582,115.654994 147.378513,114.803083 149.660108,115.616665 L149.660108,115.616665 L149.660108,107.240356 L153.189656,107.240356 Z M83.8975423,115.78635 L83.8975423,131.454006 L80.3679941,131.454006 L80.3679941,115.78635 L83.8975423,115.78635 Z M115.568249,115.311573 C118.492222,115.311573 120.862571,117.70293 120.862571,120.652819 L120.862571,120.652819 L120.862571,124.21365 C120.861925,126.476338 119.447731,128.492941 117.333023,129.246694 L117.333023,129.246694 L117.333023,121.246291 C117.333023,119.279698 115.75279,117.68546 113.803475,117.68546 L113.803475,117.68546 L111.169891,117.68546 C112.150457,116.202119 113.800956,115.311309 115.568249,115.311573 Z M131.731791,115.311573 C134.655765,115.311573 137.026114,117.70293 137.026114,120.652819 L137.026114,120.652819 L137.026114,124.21365 C137.025467,126.476338 135.611273,128.492941 133.496565,129.246694 L133.496565,129.246694 L133.496565,121.246291 C133.496565,119.279698 131.916333,117.68546 129.967017,117.68546 L129.967017,117.68546 L127.33341,117.68546 C128.31399,116.202121 129.964494,115.311314 131.731791,115.311573 Z M84.1916713,117.68546 C84.8287396,116.018565 86.5534201,115.04698 88.2942604,115.374298 C90.0351007,115.701615 91.2970731,117.23476 91.2961817,119.02127 L91.2961817,119.02127 L87.766633,121.395157 L87.766633,119.762611 C87.766633,118.615432 86.8448307,117.68546 85.7077299,117.68546 L85.7077299,117.68546 Z M100.000024,60 C108.767837,60.0099949 115.873083,67.1782156 115.88299,76.0237389 C115.88299,84.8734055 108.771944,92.0474777 100.000024,92.0474777 C91.2281031,92.0474777 84.1170566,84.8734055 84.1170566,76.0237389 C84.1170566,67.1740723 91.2281031,60 100.000024,60 Z M98.8235075,73.4729258 L89.7491096,84.9174362 C92.0485742,87.6208587 95.3058994,89.3084329 98.8235075,89.6187537 L98.8235075,89.6187537 L98.8235075,73.4729258 Z M101.17654,73.4727122 L101.17654,89.6187537 C104.694402,89.3084166 107.951933,87.6206188 110.251408,84.9168665 L110.251408,84.9168665 L101.17654,73.4727122 Z M112.684396,71.2759644 L102.447906,71.2759644 L111.674169,82.911003 C112.89119,80.8235858 113.531977,78.4454772 113.529963,76.0237389 C113.531152,74.4029258 113.244782,72.7949814 112.684396,71.2759644 L112.684396,71.2759644 Z M97.5523289,71.2759644 L87.3156273,71.2759644 C85.9029569,75.1107998 86.2740456,79.3831905 88.3262782,82.9117151 L88.3262782,82.9117151 L97.5523289,71.2759644 Z M100.000024,62.3738872 C95.2903246,62.376391 90.9206147,64.8489406 88.4628246,68.9020772 L88.4628246,68.9020772 L111.53727,68.9020772 C109.079464,64.8489331 104.709737,62.3763837 100.000024,62.3738872 Z" id="therabody-logo" fill="#FFFFFF" fill-rule="nonzero"></path>
    </g>
</svg>